# ProBuilder 5.0.6
# https://unity3d.com/unity/features/worldbuilding/probuilder
# 01.10.2022 22:39:54

mtllib ./Sphere.mtl
o Sphere

g Sphere (2)
v -1.132591 1.598631 0.850143
v -0.9909478 1.423305 1.004651
v -1.240948 1.577814 1.100143
v -0.9701309 1.173305 1.113008
v -1.145456 1.327814 1.254651
v -1.395456 1.436171 1.275468
v -1.395456 1.673305 0.850143
v -1.549965 1.577814 1.100143
v -1.658322 1.598631 0.850143
v -1.240948 1.577814 0.600143
v -1.549965 1.577814 0.600143
v -1.395456 1.436171 0.4248176
v -0.9909478 1.423305 0.6956345
v -1.145456 1.327814 0.4456345
v -0.9701309 1.173305 0.5872774
v -0.8954563 1.173305 0.850143
v -1.799965 1.423305 1.004651
v -1.645456 1.327814 1.254651
v -1.820782 1.173305 1.113008
v -1.395456 1.173305 1.350143
v -1.145456 1.018797 1.254651
v -1.395456 0.9104397 1.275468
v -0.9909478 0.9233053 1.004651
v -0.9909478 0.9233053 0.6956345
v -1.132591 0.7479799 0.850143
v -1.145456 1.018797 0.4456345
v -1.395456 1.173305 0.350143
v -1.395456 0.9104397 0.4248176
v -1.645456 1.327814 0.4456345
v -1.799965 1.423305 0.6956345
v -1.820782 1.173305 0.5872774
v -1.658322 0.7479799 0.850143
v -1.799965 0.9233053 1.004651
v -1.549965 0.7687968 1.100143
v -1.645456 1.018797 1.254651
v -1.395456 0.6733053 0.850143
v -1.240948 0.7687968 1.100143
v -1.549965 0.7687968 0.600143
v -1.240948 0.7687968 0.600143
v -1.799965 0.9233053 0.6956345
v -1.645456 1.018797 0.4456345
v -1.895456 1.173305 0.850143

vt 1.132591 0.850143
vt 0.9909478 1.004651
vt 1.240948 1.100143
vt -1.004651 1.423305
vt -1.113008 1.173305
vt -1.254651 1.327814
vt -0.9909478 1.423305
vt -1.145456 1.327814
vt -1.240948 1.577814
vt -1.395456 1.436171
vt 1.395456 0.850143
vt 1.395456 1.275468
vt 1.549965 1.100143
vt 1.658322 0.850143
vt 1.240948 0.600143
vt 1.549965 0.600143
vt 1.395456 0.4248176
vt 0.9909478 0.6956345
vt 1.240948 1.577814
vt 1.395456 1.436171
vt 1.145456 1.327814
vt 0.9909478 1.423305
vt -0.6956345 1.423305
vt -0.4456345 1.327814
vt -0.5872774 1.173305
vt -0.850143 1.598631
vt -0.850143 1.173305
vt 1.799965 1.004651
vt -1.549965 1.577814
vt -1.645456 1.327814
vt -1.799965 1.423305
vt 1.004651 1.423305
vt 1.254651 1.327814
vt 1.113008 1.173305
vt -1.395456 1.173305
vt -0.9701309 1.173305
vt -1.145456 1.018797
vt -1.395456 0.9104397
vt -1.004651 0.9233053
vt -0.6956345 0.9233053
vt -0.850143 0.7479799
vt 0.9701309 1.173305
vt 1.145456 1.018797
vt 1.395456 1.173305
vt 1.395456 0.9104397
vt 1.549965 1.577814
vt 1.645456 1.327814
vt 1.799965 0.6956345
vt 1.799965 1.423305
vt 0.4456344 1.327814
vt 0.6956345 1.423305
vt 0.5872774 1.173305
vt -1.658322 0.850143
vt -1.799965 1.004651
vt -1.549965 1.100143
vt 1.004651 0.9233053
vt 1.254651 1.018797
vt -1.799965 0.9233053
vt -1.645456 1.018797
vt -1.549965 0.7687968
vt -1.395456 0.850143
vt -1.395456 1.275468
vt -1.240948 1.100143
vt -1.132591 0.850143
vt -1.549965 0.600143
vt -1.240948 0.600143
vt -1.395456 0.4248176
vt -1.799965 0.6956345
vt 1.549965 0.7687968
vt 1.645456 1.018797
vt 1.799965 0.9233053
vt 0.6956345 0.9233053
vt 0.4456344 1.018797
vt 0.850143 0.7479799
vt 0.850143 1.173305
vt -1.820782 1.173305
vt -0.9909478 1.004651
vt -1.240948 0.7687968
vt -0.9909478 0.9233053
vt -1.254651 1.018797
vt 1.240948 0.7687968
vt -0.9909478 0.6956345
vt 0.9909478 0.9233053
vt -0.4456345 1.018797
vt 1.820782 1.173305
vt 0.850143 1.598631

vn 0.5831288 0.7487835 0.315094
vn 0.7487835 0.315094 0.5831288
vn 0.5773503 0.5773503 0.5773503
vn 0.315094 0.5831288 0.7487835
vn 0.2680349 0.9435222 0.1947388
vn 0 0.7778676 0.6284283
vn 0 0.9341723 0.3568222
vn -0.2680349 0.9435222 0.1947388
vn 0.2680349 0.9435222 -0.1947388
vn -0.2680349 0.9435222 -0.1947388
vn 0 0.9341723 -0.3568222
vn 0 0.7778676 -0.6284283
vn 0.5831288 0.7487835 -0.315094
vn 0.3150939 0.5831288 -0.7487834
vn 0.5773503 0.5773503 -0.5773502
vn 0.7487835 0.315094 -0.5831288
vn 0.7778676 0.6284283 0
vn 0.9435222 0.1947388 -0.2680349
vn 0.9341723 0.3568222 0
vn 0.9435222 0.1947388 0.2680349
vn -0.5831288 0.7487835 0.315094
vn -0.315094 0.5831288 0.7487835
vn -0.5773503 0.5773503 0.5773503
vn -0.7487835 0.315094 0.5831288
vn 0.1947388 0.2680349 0.9435222
vn 0.6284283 0 0.7778676
vn 0.3568222 0 0.9341723
vn 0.1947388 -0.2680349 0.9435222
vn 0.9435222 -0.1947388 0.2680349
vn 0.9435222 -0.1947388 -0.2680349
vn 0.9341723 -0.3568222 0
vn 0.7778676 -0.6284283 0
vn 0.6284284 0 -0.7778675
vn 0.1947387 0.2680349 -0.9435222
vn 0.3568221 0 -0.9341724
vn 0.1947387 -0.2680349 -0.9435222
vn -0.3150939 0.5831288 -0.7487834
vn -0.5831288 0.7487835 -0.315094
vn -0.5773503 0.5773503 -0.5773502
vn -0.7487835 0.315094 -0.5831288
vn -0.5831288 -0.7487835 0.315094
vn -0.7487835 -0.315094 0.5831288
vn -0.5773503 -0.5773503 0.5773503
vn -0.315094 -0.5831288 0.7487835
vn -0.2680349 -0.9435222 0.1947388
vn 0 -0.7778676 0.6284283
vn 0 -0.9341723 0.3568222
vn 0.2680349 -0.9435222 0.1947388
vn -0.2680349 -0.9435222 -0.1947388
vn 0.2680349 -0.9435222 -0.1947388
vn 0 -0.9341723 -0.3568222
vn 0 -0.7778676 -0.6284283
vn -0.5831288 -0.7487835 -0.315094
vn -0.3150939 -0.5831288 -0.7487834
vn -0.5773503 -0.5773503 -0.5773502
vn -0.7487835 -0.315094 -0.5831288
vn -0.7778676 -0.6284283 0
vn -0.9435222 -0.1947388 -0.2680349
vn -0.9341723 -0.3568222 0
vn -0.9435222 -0.1947388 0.2680349
vn -0.1947388 -0.2680349 0.9435222
vn -0.6284283 0 0.7778676
vn -0.3568222 0 0.9341723
vn -0.1947388 0.2680349 0.9435222
vn 0.5831288 -0.7487835 0.315094
vn 0.315094 -0.5831288 0.7487835
vn 0.5773503 -0.5773503 0.5773503
vn 0.7487835 -0.315094 0.5831288
vn 0.3150939 -0.5831288 -0.7487834
vn 0.5831288 -0.7487835 -0.315094
vn 0.5773503 -0.5773503 -0.5773502
vn 0.7487835 -0.315094 -0.5831288
vn -0.6284284 0 -0.7778675
vn -0.1947387 -0.2680349 -0.9435222
vn -0.3568221 0 -0.9341724
vn -0.1947387 0.2680349 -0.9435222
vn -0.9435222 0.1947388 0.2680349
vn -0.9435222 0.1947388 -0.2680349
vn -0.9341723 0.3568222 0
vn -0.7778676 0.6284283 0

usemtl Green
f 3/3/1 2/2/1 1/1/1
f 5/6/2 4/5/2 2/4/2
f 3/9/3 5/8/3 2/7/3
f 6/10/4 5/8/4 3/9/4
f 7/11/5 3/3/5 1/1/5
f 8/13/6 6/12/6 3/3/6
f 7/11/7 8/13/7 3/3/7
f 9/14/8 8/13/8 7/11/8
f 10/15/9 7/11/9 1/1/9
f 11/16/10 9/14/10 7/11/10
f 10/15/11 11/16/11 7/11/11
f 12/17/12 11/16/12 10/15/12
f 13/18/13 10/15/13 1/1/13
f 14/21/14 12/20/14 10/19/14
f 13/22/15 14/21/15 10/19/15
f 15/25/16 14/24/16 13/23/16
f 2/4/17 13/23/17 1/26/17
f 16/27/18 15/25/18 13/23/18
f 2/4/19 16/27/19 13/23/19
f 4/5/20 16/27/20 2/4/20
f 17/28/21 8/13/21 9/14/21
f 18/30/22 6/10/22 8/29/22
f 17/31/23 18/30/23 8/29/23
f 19/34/24 18/33/24 17/32/24
f 20/35/25 5/8/25 6/10/25
f 21/37/26 4/36/26 5/8/26
f 20/35/27 21/37/27 5/8/27
f 22/38/28 21/37/28 20/35/28
f 23/39/29 16/27/29 4/5/29
f 24/40/30 15/25/30 16/27/30
f 23/39/31 24/40/31 16/27/31
f 25/41/32 24/40/32 23/39/32
f 26/43/33 14/21/33 15/42/33
f 27/44/34 12/20/34 14/21/34
f 26/43/35 27/44/35 14/21/35
f 28/45/36 27/44/36 26/43/36
f 29/47/37 11/46/37 12/20/37
f 30/48/38 9/14/38 11/16/38
f 29/47/39 30/49/39 11/46/39
f 31/52/40 30/51/40 29/50/40
f 34/55/41 33/54/41 32/53/41
f 35/57/42 19/34/42 33/56/42
f 34/60/43 35/59/43 33/58/43
f 22/38/44 35/59/44 34/60/44
f 36/61/45 34/55/45 32/53/45
f 37/63/46 22/62/46 34/55/46
f 36/61/47 37/63/47 34/55/47
f 25/64/48 37/63/48 36/61/48
f 38/65/49 36/61/49 32/53/49
f 39/66/50 25/64/50 36/61/50
f 38/65/51 39/66/51 36/61/51
f 28/67/52 39/66/52 38/65/52
f 40/68/53 38/65/53 32/53/53
f 41/70/54 28/45/54 38/69/54
f 40/71/55 41/70/55 38/69/55
f 31/52/56 41/73/56 40/72/56
f 33/56/57 40/72/57 32/74/57
f 42/75/58 31/52/58 40/72/58
f 33/56/59 42/75/59 40/72/59
f 19/34/60 42/75/60 33/56/60
f 20/35/61 35/59/61 22/38/61
f 18/30/62 19/76/62 35/59/62
f 20/35/63 18/30/63 35/59/63
f 6/10/64 18/30/64 20/35/64
f 23/77/65 37/63/65 25/64/65
f 21/37/66 22/38/66 37/78/66
f 23/79/67 21/37/67 37/78/67
f 4/5/68 21/80/68 23/39/68
f 26/43/69 39/81/69 28/45/69
f 24/82/70 25/64/70 39/66/70
f 26/43/71 24/83/71 39/81/71
f 15/25/72 24/40/72 26/84/72
f 29/47/73 41/70/73 31/85/73
f 27/44/74 28/45/74 41/70/74
f 29/47/75 27/44/75 41/70/75
f 12/20/76 27/44/76 29/47/76
f 17/32/77 42/75/77 19/34/77
f 30/51/78 31/52/78 42/75/78
f 17/32/79 30/51/79 42/75/79
f 9/86/80 30/51/80 17/32/80

