# ProBuilder 5.0.6
# https://unity3d.com/unity/features/worldbuilding/probuilder
# 01.10.2022 22:54:39

mtllib ./SphereCenter.mtl
o SphereCenter

g Sphere (3)
v 0.2628655 0.4253254 0
v 0.4045085 0.25 0.1545085
v 0.1545085 0.4045085 0.25
v 0.4253254 0 0.2628655
v 0.25 0.1545085 0.4045085
v 0 0.2628655 0.4253254
v 0 0.5 0
v -0.1545085 0.4045085 0.25
v -0.2628655 0.4253254 0
v 0.1545085 0.4045085 -0.25
v -0.1545085 0.4045085 -0.25
v 0 0.2628655 -0.4253254
v 0.4045085 0.25 -0.1545085
v 0.25 0.1545085 -0.4045085
v 0.4253254 0 -0.2628655
v 0.5 0 0
v -0.4045085 0.25 0.1545085
v -0.25 0.1545085 0.4045085
v -0.4253254 0 0.2628655
v 0 0 0.5
v 0.25 -0.1545085 0.4045085
v 0 -0.2628655 0.4253254
v 0.4045085 -0.25 0.1545085
v 0.4045085 -0.25 -0.1545085
v 0.2628655 -0.4253254 0
v 0.25 -0.1545085 -0.4045085
v 0 0 -0.5
v 0 -0.2628655 -0.4253254
v -0.25 0.1545085 -0.4045085
v -0.4045085 0.25 -0.1545085
v -0.4253254 0 -0.2628655
v -0.2628655 -0.4253254 0
v -0.4045085 -0.25 0.1545085
v -0.1545085 -0.4045085 0.25
v -0.25 -0.1545085 0.4045085
v 0 -0.5 0
v 0.1545085 -0.4045085 0.25
v -0.1545085 -0.4045085 -0.25
v 0.1545085 -0.4045085 -0.25
v -0.4045085 -0.25 -0.1545085
v -0.25 -0.1545085 -0.4045085
v -0.5 0 0

vt -0.2628655 7.461185E-09
vt -0.4045085 0.1545085
vt -0.1545085 0.25
vt 0.4045085 0.25
vt 0.25 0.1545085
vt 0.1545085 0.4045085
vt -2.027671E-09 0.2628655
vt -2.923716E-09 8.771149E-09
vt -1.537089E-09 0.4253254
vt 0.1545085 0.25
vt 0.2628655 7.461185E-09
vt -0.1545085 -0.25
vt 0.1545085 -0.25
vt -1.537089E-09 -0.4253254
vt -0.4045085 -0.1545085
vt -0.1545085 0.4045085
vt -0.25 0.1545085
vt -0.4045085 0.25
vt 0.4045085 0.1545085
vt 0.4253254 -2.506339E-09
vt 0.25 -0.1545085
vt -2.027671E-09 -0.2628655
vt -0.4253254 -1.253169E-09
vt -0.25 -0.1545085
vt 0.4045085 -0.1545085
vt -0.4045085 -0.25
vt -0.1545085 -0.4045085
vt 0.1545085 -0.4045085
vt 0.4045085 -0.25

vn 0.5257311 0.8506508 6.317249E-09
vn 0.809017 0.5 0.309017
vn 0.309017 0.809017 0.5
vn 0.8506508 0 0.5257311
vn 0.5 0.3090169 0.809017
vn 0 0.5257311 0.8506508
vn 0 1 5.28182E-09
vn -0.309017 0.809017 0.5
vn -0.5257311 0.8506508 -6.317249E-09
vn 0.309017 0.809017 -0.5
vn -0.309017 0.809017 -0.5
vn 3.158624E-09 0.5257311 -0.8506508
vn 0.809017 0.5 -0.309017
vn 0.5 0.309017 -0.809017
vn 0.8506508 6.317249E-09 -0.5257311
vn 1 5.28182E-09 0
vn -0.809017 0.5 0.309017
vn -0.5 0.309017 0.809017
vn -0.8506508 0 0.5257311
vn 2.64091E-09 0 1
vn 0.5000001 -0.309017 0.809017
vn 0 -0.5257311 0.8506508
vn 0.809017 -0.5000001 0.309017
vn 0.809017 -0.5 -0.309017
vn 0.5257311 -0.8506508 -6.317249E-09
vn 0.5000001 -0.309017 -0.809017
vn 2.64091E-09 0 -1
vn 0 -0.5257311 -0.8506508
vn -0.5 0.309017 -0.809017
vn -0.809017 0.5 -0.309017
vn -0.8506508 -6.317249E-09 -0.5257311
vn -0.5257311 -0.8506508 6.317249E-09
vn -0.809017 -0.5 0.309017
vn -0.309017 -0.809017 0.5
vn -0.5 -0.3090169 0.809017
vn 0 -1 5.28182E-09
vn 0.309017 -0.809017 0.5
vn -0.309017 -0.809017 -0.5
vn 0.309017 -0.809017 -0.5
vn -0.809017 -0.5 -0.309017
vn -0.5 -0.309017 -0.809017
vn -1 -5.28182E-09 0

usemtl ProBuilderDefault
f 3/3/3 2/2/2 1/1/1
f 5/2/5 4/1/4 2/3/2
f 3/6/3 5/5/5 2/4/2
f 6/7/6 5/5/5 3/6/3
f 7/8/7 3/3/3 1/1/1
f 8/10/8 6/9/6 3/3/3
f 7/8/7 8/10/8 3/3/3
f 9/11/9 8/10/8 7/8/7
f 10/12/10 7/8/7 1/1/1
f 11/13/11 9/11/9 7/8/7
f 10/12/10 11/13/11 7/8/7
f 12/14/12 11/13/11 10/12/10
f 13/15/13 10/12/10 1/1/1
f 14/17/14 12/7/12 10/16/10
f 13/18/13 14/17/14 10/16/10
f 15/11/15 14/19/14 13/10/13
f 2/3/2 13/10/13 1/9/1
f 16/8/16 15/11/15 13/10/13
f 2/3/2 16/8/16 13/10/13
f 4/1/4 16/8/16 2/3/2
f 17/19/17 8/10/8 9/11/9
f 18/17/18 6/7/6 8/16/8
f 17/18/17 18/17/18 8/16/8
f 19/11/19 18/19/18 17/10/17
f 20/8/20 5/5/5 6/7/6
f 21/21/21 4/20/4 5/5/5
f 20/8/20 21/21/21 5/5/5
f 22/22/22 21/21/21 20/8/20
f 23/12/23 16/8/16 4/1/4
f 24/13/24 15/11/15 16/8/16
f 23/12/23 24/13/24 16/8/16
f 25/14/25 24/13/24 23/12/23
f 26/24/26 14/17/14 15/23/15
f 27/8/27 12/7/12 14/17/14
f 26/24/26 27/8/27 14/17/14
f 28/22/28 27/8/27 26/24/26
f 29/5/29 11/6/11 12/7/12
f 30/25/30 9/11/9 11/13/11
f 29/5/29 30/4/30 11/6/11
f 31/1/31 30/3/30 29/2/29
f 34/3/34 33/2/33 32/1/32
f 35/25/35 19/11/19 33/13/33
f 34/27/34 35/24/35 33/26/33
f 22/22/22 35/24/35 34/27/34
f 36/8/36 34/3/34 32/1/32
f 37/10/37 22/9/22 34/3/34
f 36/8/36 37/10/37 34/3/34
f 25/11/25 37/10/37 36/8/36
f 38/12/38 36/8/36 32/1/32
f 39/13/39 25/11/25 36/8/36
f 38/12/38 39/13/39 36/8/36
f 28/14/28 39/13/39 38/12/38
f 40/15/40 38/12/38 32/1/32
f 41/21/41 28/22/28 38/28/38
f 40/29/40 41/21/41 38/28/38
f 31/1/31 41/15/41 40/12/40
f 33/13/33 40/12/40 32/14/32
f 42/8/42 31/1/31 40/12/40
f 33/13/33 42/8/42 40/12/40
f 19/11/19 42/8/42 33/13/33
f 20/8/20 35/24/35 22/22/22
f 18/17/18 19/23/19 35/24/35
f 20/8/20 18/17/18 35/24/35
f 6/7/6 18/17/18 20/8/20
f 23/19/23 37/10/37 25/11/25
f 21/21/21 22/22/22 37/28/37
f 23/29/23 21/21/21 37/28/37
f 4/1/4 21/15/21 23/12/23
f 26/24/26 39/27/39 28/22/28
f 24/25/24 25/11/25 39/13/39
f 26/24/26 24/26/24 39/27/39
f 15/11/15 24/13/24 26/25/26
f 29/5/29 41/21/41 31/20/31
f 27/8/27 28/22/28 41/21/41
f 29/5/29 27/8/27 41/21/41
f 12/7/12 27/8/27 29/5/29
f 17/10/17 42/8/42 19/11/19
f 30/3/30 31/1/31 42/8/42
f 17/10/17 30/3/30 42/8/42
f 9/9/9 30/3/30 17/10/17

